<?xml version="1.0" encoding="UTF-8"?>
<svg width="69px" height="23px" viewBox="0 0 69 23" version="1.1" xmlns="http://www.w3.org/2000/svg" xmlns:xlink="http://www.w3.org/1999/xlink">
    <g transform="translate(-1.000000, -5.000000)" fill="#FFFFFF" fill-rule="nonzero">
        <path d="M22.056,28.016 C23.464,28.016 24.792,27.704 26.04,27.08 L26.04,27.08 L26.04,26.84 C24.408,26.824 22.912,26.472 21.552,25.784 C20.912,25.464 20.284,25.056 19.668,24.56 C19.052,24.064 18.492,23.54 17.988,22.988 C17.484,22.436 17.024,21.896 16.608,21.368 C16.192,20.84 15.792,20.332 15.408,19.844 C15.024,19.356 14.716,18.964 14.484,18.668 C14.252,18.372 13.972,18.032 13.644,17.648 C13.316,17.264 12.932,16.856 12.492,16.424 C12.052,15.992 11.504,15.6 10.848,15.248 C10.96,15.264 11.064,15.272 11.16,15.272 C12.28,15.272 13.276,14.852 14.148,14.012 C15.02,13.172 15.456,12.08 15.456,10.736 C15.456,9.392 15.008,8.352 14.112,7.616 C12.976,6.672 11.376,6.2 9.312,6.2 L9.312,6.2 L1.08,6.2 L1.08,6.44 L1.392,6.44 C1.808,6.44 2.164,6.588 2.46,6.884 C2.756,7.18 2.912,7.536 2.928,7.952 L2.928,7.952 L2.928,21.272 C2.912,21.688 2.752,22.04 2.448,22.328 C2.144,22.616 1.792,22.76 1.392,22.76 L1.392,22.76 L1.08,22.76 L1.08,23 L8.376,23 L8.376,22.76 L8.064,22.76 C7.648,22.76 7.288,22.612 6.984,22.316 C6.68,22.02 6.528,21.664 6.528,21.248 L6.528,21.248 L6.528,7.256 L8.352,7.256 C9.248,7.256 10.016,7.564 10.656,8.18 C11.296,8.796 11.616,9.672 11.616,10.808 C11.616,12.36 11.096,13.424 10.056,14 C9.368,14.368 8.616,14.552 7.8,14.552 L7.8,14.552 L7.32,14.552 L7.32,14.792 C7.656,14.872 8.104,15.352 8.664,16.232 C8.984,16.68 9.688,17.72 10.776,19.352 C11.864,20.984 12.608,22.088 13.008,22.664 C14.56,25.032 16.44,26.624 18.648,27.44 C19.672,27.824 20.808,28.016 22.056,28.016 Z M25.848,23 L25.824,22.76 L25.536,22.76 C25.12,22.76 24.76,22.612 24.456,22.316 C24.152,22.02 24,21.664 24,21.248 L24,21.248 L24,15.152 L31.776,15.152 L31.776,21.272 C31.76,21.688 31.568,22.08 31.2,22.448 C30.976,22.656 30.656,22.76 30.24,22.76 L30.24,22.76 L29.928,22.76 L29.928,23 L37.224,23 L37.224,22.76 L36.912,22.76 C36.496,22.76 36.136,22.612 35.832,22.316 C35.528,22.02 35.376,21.664 35.376,21.248 L35.376,21.248 L35.376,7.952 C35.376,7.536 35.528,7.18 35.832,6.884 C36.136,6.588 36.496,6.44 36.912,6.44 L36.912,6.44 L37.224,6.44 L37.224,6.2 L29.928,6.2 L29.928,6.44 L30.24,6.44 C30.656,6.44 31.012,6.584 31.308,6.872 C31.604,7.16 31.76,7.512 31.776,7.928 L31.776,7.928 L31.776,14.12 L24,14.12 L24,7.928 C24,7.512 24.152,7.16 24.456,6.872 C24.76,6.584 25.12,6.44 25.536,6.44 L25.536,6.44 L25.824,6.44 L25.848,6.2 L18.552,6.2 L18.552,6.44 L18.864,6.44 C19.28,6.44 19.636,6.584 19.932,6.872 C20.228,7.16 20.384,7.512 20.4,7.928 L20.4,7.928 L20.4,21.248 C20.384,21.664 20.228,22.02 19.932,22.316 C19.636,22.612 19.28,22.76 18.864,22.76 L18.864,22.76 L18.552,22.76 L18.552,23 L25.848,23 Z M50.232,23 L50.208,22.76 L49.92,22.76 C49.504,22.76 49.144,22.612 48.84,22.316 C48.536,22.02 48.384,21.664 48.384,21.248 L48.384,21.248 L48.384,15.368 L53.112,7.832 C53.368,7.448 53.712,7.12 54.144,6.848 C54.576,6.576 55.032,6.44 55.512,6.44 L55.512,6.44 L55.848,6.44 L55.848,6.2 L50.136,6.2 L50.136,6.44 L50.424,6.44 C50.776,6.44 51.048,6.608 51.24,6.944 C51.352,7.104 51.408,7.268 51.408,7.436 C51.408,7.604 51.36,7.768 51.264,7.928 L51.264,7.928 L47.712,14.168 L44.28,7.928 C44.2,7.768 44.16,7.604 44.16,7.436 C44.16,7.268 44.208,7.096 44.304,6.92 C44.496,6.6 44.768,6.44 45.12,6.44 L45.12,6.44 L45.432,6.44 L45.432,6.2 L37.488,6.2 L37.488,6.44 L37.824,6.44 C38.288,6.44 38.74,6.572 39.18,6.836 C39.62,7.1 39.96,7.424 40.2,7.808 L40.2,7.808 L44.784,15.344 L44.784,21.272 C44.768,21.688 44.612,22.04 44.316,22.328 C44.02,22.616 43.664,22.76 43.248,22.76 L43.248,22.76 L42.936,22.76 L42.936,23 L50.232,23 Z M68.496,23 L69.6,18.104 L69.36,18.104 C68.976,19.336 68.388,20.288 67.596,20.96 C66.804,21.632 65.824,21.968 64.656,21.968 L64.656,21.968 L61.512,21.968 L61.512,15.224 L64.704,15.224 C65.088,15.24 65.44,15.336 65.76,15.512 C66.4,15.896 66.72,16.488 66.72,17.288 L66.72,17.288 L66.72,17.48 L66.96,17.48 L66.96,11.936 L66.72,11.936 L66.72,12.152 C66.72,12.728 66.528,13.212 66.144,13.604 C65.76,13.996 65.272,14.2 64.68,14.216 L64.68,14.216 L61.512,14.216 L61.512,7.232 L65.544,7.232 C66.264,7.264 66.836,7.5 67.26,7.94 C67.684,8.38 67.896,8.96 67.896,9.68 L67.896,9.68 L67.896,9.968 L68.136,9.968 L68.136,5.768 C67.896,5.864 67.48,5.96 66.888,6.056 C66.296,6.152 65.752,6.2 65.256,6.2 L65.256,6.2 L56.064,6.2 L56.064,6.44 L56.376,6.44 C56.632,6.44 56.88,6.504 57.12,6.632 C57.6,6.904 57.864,7.32 57.912,7.88 L57.912,7.88 L57.912,21.248 C57.896,21.664 57.74,22.02 57.444,22.316 C57.148,22.612 56.792,22.76 56.376,22.76 L56.376,22.76 L56.064,22.76 L56.064,23 L68.496,23 Z"></path>
    </g>
</svg>
