<?xml version="1.0" encoding="UTF-8"?>
<svg viewBox="0 0 58 53" version="1.1" xmlns="http://www.w3.org/2000/svg" xmlns:xlink="http://www.w3.org/1999/xlink">
	<g>
			<path d="M18.4009756,0.990187589 C10.3402542,-2.64950977 -1.797118,4.22331819 0.223393518,13.7902492 C1.3577614,19.1604747 6.29507028,23.0464664 11.5692828,24.012111 C16.1338002,24.8483993 20.333848,22.8579943 23.4071996,19.7214929 C22.7716207,24.2039463 20.8904996,28.6972657 19.0512477,32.4007357 C15.9690542,38.6068614 11.5484782,45.2031257 5.67223418,49.111496 C3.47618431,50.5710228 5.53557432,54.1219818 7.75047831,52.64939 C20.6712717,44.058064 39.7388983,10.6249013 18.4009756,0.990187589 Z M22.6435427,13.9929505 C20.0466152,18.440219 15.7452753,21.0589073 10.5600022,19.566136 C6.12928405,18.2908125 2.85191789,13.4493954 4.88855293,9.10186055 C8.75325743,0.851000243 19.8661358,3.80549744 22.6699385,11.1164551 C22.7267609,12.0278994 22.7422343,12.9406372 22.7471753,13.8549273 C22.7132379,13.9025304 22.6748795,13.9396557 22.6435427,13.9929505 Z"></path>
			<path d="M48.4005914,0.990187589 C40.3400054,-2.64950977 28.2032272,4.22331819 30.2233147,13.7902492 C31.3570134,19.1604747 36.2951495,23.0464664 41.5694034,24.012111 C46.1338442,24.8483993 50.3338214,22.8579943 53.4067313,19.7214929 C52.770903,24.2039463 50.8911138,28.6972657 49.0509826,32.4007357 C45.9688409,38.6068614 41.5489893,45.2031257 35.6718038,49.111496 C33.4757908,50.5710228 35.5357963,54.1219818 37.750273,52.64939 C50.6712395,44.058064 69.7391958,10.6249013 48.4005914,0.990187589 Z M52.6439974,13.9929505 C50.0471136,18.440219 45.7454558,21.0589073 40.5603999,19.566136 C36.1300162,18.2908125 32.852445,13.4493954 34.8893059,9.10186055 C38.582831,1.21552621 48.8930007,3.56968096 52.2465072,10.1755176 C52.5706626,11.3983224 52.6796246,12.6380729 52.6948377,13.9255558 C52.6784543,13.9496161 52.6586904,13.9665618 52.6439974,13.9929505 Z"></path>
	</g>
</svg>
